# xmcd
#
# Track frame offsets:
#	150
#	12851
#	25381
#	36594
#	50095
#	62863
#	74227
#	87031
#	100420
#	113731
#	126972
#	138015
#	149697
#	161818
#	173970
#	184013
#	195502
#	208127
#	218627
#	232029
#	243149
#	255980
#	267901
#	276654
#	288127
#	301379
#
# Disc length: 4195 seconds
#
# Revision: 1
# Processed by: cddbd v1.5.2PL0 Copyright (c) Steve Scherf et al.
# Submitted via: audiograbber 1.83.01
#
DISCID=9310611a
DTITLE=DJ Stephan Wuthe - rare Rhythm and Blues bounce for Dancers Vol.2 1945-195
DTITLE=7
DYEAR=2010
DGENRE=R&B
TTITLE0=Dinah Washington - Hey, Good Looking
TTITLE1=Candy Rivers and Joe Liggins - Daddy On My Mind
TTITLE2=Chuck Miller - Baltimore Jones
TTITLE3=Margie Day - Ho - Ho
TTITLE4=Eddie Chamblee - La! La! La! Lady
TTITLE5=Bobby Scott - Shadrach
TTITLE6=Jimmy McCracklin - The Walk
TTITLE7=Buddy Johnson - Walk 'em
TTITLE8=Wynonie Harris - Teardrops From My Eyes
TTITLE9=Ruth Brown - He Treats Your Daughter Mean
TTITLE10=Candy Rivers and Joe Liggins - One Sweet Letter
TTITLE11=Johnny Crawford - Tall Corn
TTITLE12=Lucky Millinder - Bongo Boogie
TTITLE13=Mike Gordon - Why Don't You Do Right
TTITLE14=Fontane Sisters - ...Rock And Rolla
TTITLE15=Joe Turner - Lipstick, Powder And Paint
TTITLE16=Ruth Brown - As Long As I'm Moving
TTITLE17=Varetta Dillard - Them There Eyes
TTITLE18=Amos Milburn - One Scotch, One Burbon ...
TTITLE19=Ella Johnson - Well, Do It
TTITLE20=Roy Brown - Caldonia's Wedding Day
TTITLE21=Henry Glover - Soft
TTITLE22=Amos Milburn - French Fried Potatoes ...
TTITLE23=Jive Bombers - When Your Hair Has Turned ...
TTITLE24=Carmen Taylor - Ding Dong
TTITLE25=Taps Miller - Ferme la bouche
EXTD=
EXTT0=
EXTT1=
EXTT2=
EXTT3=
EXTT4=
EXTT5=
EXTT6=
EXTT7=
EXTT8=
EXTT9=
EXTT10=
EXTT11=
EXTT12=
EXTT13=
EXTT14=
EXTT15=
EXTT16=
EXTT17=
EXTT18=
EXTT19=
EXTT20=
EXTT21=
EXTT22=
EXTT23=
EXTT24=
EXTT25=
PLAYORDER=
